<mxfile host="app.diagrams.net" agent="Mozilla/5.0 (Windows NT 10.0; Win64; x64) AppleWebKit/537.36 (KHTML, like Gecko) Chrome/128.0.0.0 Safari/537.36" version="24.7.7">
  <diagram name="Page-1" id="glwcyqLlPhHk-PA2cFPx">
    <mxGraphModel dx="1293" dy="515" grid="1" gridSize="10" guides="1" tooltips="1" connect="1" arrows="1" fold="1" page="1" pageScale="1" pageWidth="850" pageHeight="1100" math="0" shadow="0">
      <root>
        <mxCell id="0" />
        <mxCell id="1" parent="0" />
        <mxCell id="M_gOYiY0mR8SHbuSnEkB-2" value="" style="rounded=0;whiteSpace=wrap;html=1;" vertex="1" parent="1">
          <mxGeometry x="40" y="40" width="400" height="280" as="geometry" />
        </mxCell>
        <mxCell id="M_gOYiY0mR8SHbuSnEkB-4" value="" style="rounded=0;whiteSpace=wrap;html=1;" vertex="1" parent="1">
          <mxGeometry x="40" y="40" width="400" height="40" as="geometry" />
        </mxCell>
        <mxCell id="M_gOYiY0mR8SHbuSnEkB-6" value="&amp;lt; User &amp;gt;" style="text;html=1;align=center;verticalAlign=middle;whiteSpace=wrap;rounded=0;" vertex="1" parent="1">
          <mxGeometry x="40" y="45" width="60" height="30" as="geometry" />
        </mxCell>
        <mxCell id="M_gOYiY0mR8SHbuSnEkB-7" value="" style="rounded=0;whiteSpace=wrap;html=1;" vertex="1" parent="1">
          <mxGeometry x="40" y="80" width="120" height="240" as="geometry" />
        </mxCell>
        <mxCell id="M_gOYiY0mR8SHbuSnEkB-8" value="" style="rounded=1;whiteSpace=wrap;html=1;" vertex="1" parent="1">
          <mxGeometry x="45" y="284" width="110" height="30" as="geometry" />
        </mxCell>
        <mxCell id="M_gOYiY0mR8SHbuSnEkB-9" value="" style="rounded=1;whiteSpace=wrap;html=1;" vertex="1" parent="1">
          <mxGeometry x="45" y="244" width="110" height="30" as="geometry" />
        </mxCell>
        <mxCell id="M_gOYiY0mR8SHbuSnEkB-10" value="" style="rounded=1;whiteSpace=wrap;html=1;" vertex="1" parent="1">
          <mxGeometry x="45" y="204" width="110" height="30" as="geometry" />
        </mxCell>
        <mxCell id="M_gOYiY0mR8SHbuSnEkB-11" value="" style="rounded=1;whiteSpace=wrap;html=1;" vertex="1" parent="1">
          <mxGeometry x="45" y="164" width="110" height="30" as="geometry" />
        </mxCell>
        <mxCell id="M_gOYiY0mR8SHbuSnEkB-12" value="selected topic &amp;gt;" style="rounded=1;whiteSpace=wrap;html=1;fillColor=#00CC66;" vertex="1" parent="1">
          <mxGeometry x="45" y="124" width="110" height="30" as="geometry" />
        </mxCell>
        <mxCell id="M_gOYiY0mR8SHbuSnEkB-13" value="" style="rounded=1;whiteSpace=wrap;html=1;" vertex="1" parent="1">
          <mxGeometry x="45" y="84" width="110" height="30" as="geometry" />
        </mxCell>
        <mxCell id="M_gOYiY0mR8SHbuSnEkB-14" value="Topic title" style="rounded=0;whiteSpace=wrap;html=1;" vertex="1" parent="1">
          <mxGeometry x="170" y="94" width="260" height="36" as="geometry" />
        </mxCell>
        <mxCell id="M_gOYiY0mR8SHbuSnEkB-15" value="Option A" style="whiteSpace=wrap;html=1;aspect=fixed;" vertex="1" parent="1">
          <mxGeometry x="170" y="139" width="61" height="61" as="geometry" />
        </mxCell>
        <mxCell id="M_gOYiY0mR8SHbuSnEkB-16" value="Option B" style="whiteSpace=wrap;html=1;aspect=fixed;" vertex="1" parent="1">
          <mxGeometry x="240" y="139" width="61" height="61" as="geometry" />
        </mxCell>
        <mxCell id="M_gOYiY0mR8SHbuSnEkB-17" value="Option C" style="whiteSpace=wrap;html=1;aspect=fixed;" vertex="1" parent="1">
          <mxGeometry x="310" y="139" width="61" height="61" as="geometry" />
        </mxCell>
        <mxCell id="M_gOYiY0mR8SHbuSnEkB-29" value="" style="dashed=0;align=center;fontSize=12;shape=rect;fillColor=#ffffff;strokeColor=#cccccc;whiteSpace=wrap;html=1;" vertex="1" parent="1">
          <mxGeometry x="354" y="45" width="80" height="30" as="geometry" />
        </mxCell>
        <mxCell id="M_gOYiY0mR8SHbuSnEkB-30" value="&lt;font style=&quot;font-size: 8px;&quot;&gt;0x00..AS23&lt;/font&gt;" style="text;fontColor=#000000;verticalAlign=middle;spacingLeft=13;fontSize=14;whiteSpace=wrap;html=1;" vertex="1" parent="M_gOYiY0mR8SHbuSnEkB-29">
          <mxGeometry width="80" height="30" as="geometry" />
        </mxCell>
        <mxCell id="M_gOYiY0mR8SHbuSnEkB-31" value="" style="dashed=0;html=1;shape=mxgraph.gmdl.triangle;fillColor=#cccccc;strokeColor=none;" vertex="1" parent="M_gOYiY0mR8SHbuSnEkB-29">
          <mxGeometry x="1" y="0.5" width="10" height="5" relative="1" as="geometry">
            <mxPoint x="-25" y="-2.5" as="offset" />
          </mxGeometry>
        </mxCell>
        <mxCell id="M_gOYiY0mR8SHbuSnEkB-32" value="" style="rounded=0;whiteSpace=wrap;html=1;" vertex="1" parent="1">
          <mxGeometry x="40" y="360" width="400" height="280" as="geometry" />
        </mxCell>
        <mxCell id="M_gOYiY0mR8SHbuSnEkB-33" value="" style="rounded=0;whiteSpace=wrap;html=1;" vertex="1" parent="1">
          <mxGeometry x="40" y="360" width="400" height="40" as="geometry" />
        </mxCell>
        <mxCell id="M_gOYiY0mR8SHbuSnEkB-34" value="&amp;lt; Owner &amp;gt;" style="text;html=1;align=center;verticalAlign=middle;whiteSpace=wrap;rounded=0;" vertex="1" parent="1">
          <mxGeometry x="40" y="365" width="60" height="30" as="geometry" />
        </mxCell>
        <mxCell id="M_gOYiY0mR8SHbuSnEkB-35" value="" style="rounded=0;whiteSpace=wrap;html=1;" vertex="1" parent="1">
          <mxGeometry x="40" y="400" width="120" height="240" as="geometry" />
        </mxCell>
        <mxCell id="M_gOYiY0mR8SHbuSnEkB-36" value="" style="rounded=1;whiteSpace=wrap;html=1;" vertex="1" parent="1">
          <mxGeometry x="45" y="604" width="110" height="30" as="geometry" />
        </mxCell>
        <mxCell id="M_gOYiY0mR8SHbuSnEkB-37" value="" style="rounded=1;whiteSpace=wrap;html=1;" vertex="1" parent="1">
          <mxGeometry x="45" y="564" width="110" height="30" as="geometry" />
        </mxCell>
        <mxCell id="M_gOYiY0mR8SHbuSnEkB-38" value="" style="rounded=1;whiteSpace=wrap;html=1;" vertex="1" parent="1">
          <mxGeometry x="45" y="524" width="110" height="30" as="geometry" />
        </mxCell>
        <mxCell id="M_gOYiY0mR8SHbuSnEkB-39" value="" style="rounded=1;whiteSpace=wrap;html=1;" vertex="1" parent="1">
          <mxGeometry x="45" y="484" width="110" height="30" as="geometry" />
        </mxCell>
        <mxCell id="M_gOYiY0mR8SHbuSnEkB-40" value="selected topic &amp;gt;" style="rounded=1;whiteSpace=wrap;html=1;fillColor=#00CC66;" vertex="1" parent="1">
          <mxGeometry x="45" y="444" width="110" height="30" as="geometry" />
        </mxCell>
        <mxCell id="M_gOYiY0mR8SHbuSnEkB-41" value="" style="rounded=1;whiteSpace=wrap;html=1;fillColor=#007FFF;" vertex="1" parent="1">
          <mxGeometry x="45" y="404" width="110" height="30" as="geometry" />
        </mxCell>
        <mxCell id="M_gOYiY0mR8SHbuSnEkB-42" value="Topic title" style="rounded=0;whiteSpace=wrap;html=1;" vertex="1" parent="1">
          <mxGeometry x="170" y="414" width="260" height="36" as="geometry" />
        </mxCell>
        <mxCell id="M_gOYiY0mR8SHbuSnEkB-44" value="&lt;font style=&quot;font-size: 11px;&quot;&gt;End Voting&lt;/font&gt;" style="whiteSpace=wrap;html=1;aspect=fixed;" vertex="1" parent="1">
          <mxGeometry x="269.5" y="514" width="61" height="61" as="geometry" />
        </mxCell>
        <mxCell id="M_gOYiY0mR8SHbuSnEkB-46" value="" style="dashed=0;align=center;fontSize=12;shape=rect;fillColor=#ffffff;strokeColor=#cccccc;whiteSpace=wrap;html=1;" vertex="1" parent="1">
          <mxGeometry x="354" y="365" width="80" height="30" as="geometry" />
        </mxCell>
        <mxCell id="M_gOYiY0mR8SHbuSnEkB-47" value="&lt;font style=&quot;font-size: 8px;&quot;&gt;0x00..AS23&lt;/font&gt;" style="text;fontColor=#000000;verticalAlign=middle;spacingLeft=13;fontSize=14;whiteSpace=wrap;html=1;" vertex="1" parent="M_gOYiY0mR8SHbuSnEkB-46">
          <mxGeometry width="80" height="30" as="geometry" />
        </mxCell>
        <mxCell id="M_gOYiY0mR8SHbuSnEkB-48" value="" style="dashed=0;html=1;shape=mxgraph.gmdl.triangle;fillColor=#cccccc;strokeColor=none;" vertex="1" parent="M_gOYiY0mR8SHbuSnEkB-46">
          <mxGeometry x="1" y="0.5" width="10" height="5" relative="1" as="geometry">
            <mxPoint x="-25" y="-2.5" as="offset" />
          </mxGeometry>
        </mxCell>
        <mxCell id="M_gOYiY0mR8SHbuSnEkB-49" value="" style="html=1;verticalLabelPosition=bottom;align=center;labelBackgroundColor=#ffffff;verticalAlign=top;strokeWidth=2;strokeColor=#0080F0;shadow=0;dashed=0;shape=mxgraph.ios7.icons.add;" vertex="1" parent="1">
          <mxGeometry x="92" y="411" width="16" height="16" as="geometry" />
        </mxCell>
        <mxCell id="M_gOYiY0mR8SHbuSnEkB-50" value="" style="rounded=0;whiteSpace=wrap;html=1;" vertex="1" parent="1">
          <mxGeometry x="480" y="360" width="400" height="280" as="geometry" />
        </mxCell>
        <mxCell id="M_gOYiY0mR8SHbuSnEkB-51" value="" style="rounded=0;whiteSpace=wrap;html=1;" vertex="1" parent="1">
          <mxGeometry x="480" y="360" width="400" height="40" as="geometry" />
        </mxCell>
        <mxCell id="M_gOYiY0mR8SHbuSnEkB-52" value="&amp;lt; Owner &amp;gt;" style="text;html=1;align=center;verticalAlign=middle;whiteSpace=wrap;rounded=0;" vertex="1" parent="1">
          <mxGeometry x="480" y="365" width="60" height="30" as="geometry" />
        </mxCell>
        <mxCell id="M_gOYiY0mR8SHbuSnEkB-53" value="" style="rounded=0;whiteSpace=wrap;html=1;" vertex="1" parent="1">
          <mxGeometry x="480" y="400" width="120" height="240" as="geometry" />
        </mxCell>
        <mxCell id="M_gOYiY0mR8SHbuSnEkB-54" value="" style="rounded=1;whiteSpace=wrap;html=1;" vertex="1" parent="1">
          <mxGeometry x="485" y="604" width="110" height="30" as="geometry" />
        </mxCell>
        <mxCell id="M_gOYiY0mR8SHbuSnEkB-55" value="" style="rounded=1;whiteSpace=wrap;html=1;" vertex="1" parent="1">
          <mxGeometry x="485" y="564" width="110" height="30" as="geometry" />
        </mxCell>
        <mxCell id="M_gOYiY0mR8SHbuSnEkB-56" value="" style="rounded=1;whiteSpace=wrap;html=1;" vertex="1" parent="1">
          <mxGeometry x="485" y="524" width="110" height="30" as="geometry" />
        </mxCell>
        <mxCell id="M_gOYiY0mR8SHbuSnEkB-57" value="" style="rounded=1;whiteSpace=wrap;html=1;" vertex="1" parent="1">
          <mxGeometry x="485" y="484" width="110" height="30" as="geometry" />
        </mxCell>
        <mxCell id="M_gOYiY0mR8SHbuSnEkB-58" value="selected topic &amp;gt;" style="rounded=1;whiteSpace=wrap;html=1;fillColor=#00CC66;" vertex="1" parent="1">
          <mxGeometry x="485" y="444" width="110" height="30" as="geometry" />
        </mxCell>
        <mxCell id="M_gOYiY0mR8SHbuSnEkB-59" value="" style="rounded=1;whiteSpace=wrap;html=1;fillColor=#007FFF;" vertex="1" parent="1">
          <mxGeometry x="485" y="404" width="110" height="30" as="geometry" />
        </mxCell>
        <mxCell id="M_gOYiY0mR8SHbuSnEkB-60" value="Topic title" style="rounded=0;whiteSpace=wrap;html=1;" vertex="1" parent="1">
          <mxGeometry x="610" y="414" width="260" height="36" as="geometry" />
        </mxCell>
        <mxCell id="M_gOYiY0mR8SHbuSnEkB-62" value="" style="dashed=0;align=center;fontSize=12;shape=rect;fillColor=#ffffff;strokeColor=#cccccc;whiteSpace=wrap;html=1;" vertex="1" parent="1">
          <mxGeometry x="794" y="365" width="80" height="30" as="geometry" />
        </mxCell>
        <mxCell id="M_gOYiY0mR8SHbuSnEkB-63" value="&lt;font style=&quot;font-size: 8px;&quot;&gt;0x00..AS23&lt;/font&gt;" style="text;fontColor=#000000;verticalAlign=middle;spacingLeft=13;fontSize=14;whiteSpace=wrap;html=1;" vertex="1" parent="M_gOYiY0mR8SHbuSnEkB-62">
          <mxGeometry width="80" height="30" as="geometry" />
        </mxCell>
        <mxCell id="M_gOYiY0mR8SHbuSnEkB-64" value="" style="dashed=0;html=1;shape=mxgraph.gmdl.triangle;fillColor=#cccccc;strokeColor=none;" vertex="1" parent="M_gOYiY0mR8SHbuSnEkB-62">
          <mxGeometry x="1" y="0.5" width="10" height="5" relative="1" as="geometry">
            <mxPoint x="-25" y="-2.5" as="offset" />
          </mxGeometry>
        </mxCell>
        <mxCell id="M_gOYiY0mR8SHbuSnEkB-65" value="" style="html=1;verticalLabelPosition=bottom;align=center;labelBackgroundColor=#ffffff;verticalAlign=top;strokeWidth=2;strokeColor=#0080F0;shadow=0;dashed=0;shape=mxgraph.ios7.icons.add;" vertex="1" parent="1">
          <mxGeometry x="532" y="411" width="16" height="16" as="geometry" />
        </mxCell>
        <mxCell id="M_gOYiY0mR8SHbuSnEkB-66" value="" style="verticalLabelPosition=bottom;shadow=0;dashed=0;align=center;html=1;verticalAlign=top;strokeWidth=1;shape=mxgraph.mockup.graphics.pieChart;strokeColor=#008cff;parts=10,20,35;partColors=#e0e0e0,#d0d0d0,#c0c0c0,#b0b0b0,#a0a0a0;strokeWidth=2;" vertex="1" parent="1">
          <mxGeometry x="720" y="469.5" width="150" height="150" as="geometry" />
        </mxCell>
        <mxCell id="M_gOYiY0mR8SHbuSnEkB-67" value="Option A: 10%" style="text;html=1;align=center;verticalAlign=middle;whiteSpace=wrap;rounded=0;" vertex="1" parent="1">
          <mxGeometry x="590" y="454" width="110" height="30" as="geometry" />
        </mxCell>
        <mxCell id="M_gOYiY0mR8SHbuSnEkB-68" value="Option B: 30%" style="text;html=1;align=center;verticalAlign=middle;whiteSpace=wrap;rounded=0;" vertex="1" parent="1">
          <mxGeometry x="590" y="474" width="110" height="30" as="geometry" />
        </mxCell>
        <mxCell id="M_gOYiY0mR8SHbuSnEkB-69" value="Option C: 60%" style="text;html=1;align=center;verticalAlign=middle;whiteSpace=wrap;rounded=0;" vertex="1" parent="1">
          <mxGeometry x="590" y="494" width="110" height="30" as="geometry" />
        </mxCell>
        <mxCell id="M_gOYiY0mR8SHbuSnEkB-70" value="" style="rounded=0;whiteSpace=wrap;html=1;" vertex="1" parent="1">
          <mxGeometry x="920" y="40" width="400" height="280" as="geometry" />
        </mxCell>
        <mxCell id="M_gOYiY0mR8SHbuSnEkB-71" value="" style="rounded=0;whiteSpace=wrap;html=1;" vertex="1" parent="1">
          <mxGeometry x="920" y="40" width="400" height="40" as="geometry" />
        </mxCell>
        <mxCell id="M_gOYiY0mR8SHbuSnEkB-72" value="&amp;lt; User &amp;gt;" style="text;html=1;align=center;verticalAlign=middle;whiteSpace=wrap;rounded=0;" vertex="1" parent="1">
          <mxGeometry x="920" y="45" width="60" height="30" as="geometry" />
        </mxCell>
        <mxCell id="M_gOYiY0mR8SHbuSnEkB-73" value="" style="rounded=0;whiteSpace=wrap;html=1;" vertex="1" parent="1">
          <mxGeometry x="920" y="80" width="120" height="240" as="geometry" />
        </mxCell>
        <mxCell id="M_gOYiY0mR8SHbuSnEkB-74" value="" style="rounded=1;whiteSpace=wrap;html=1;" vertex="1" parent="1">
          <mxGeometry x="925" y="284" width="110" height="30" as="geometry" />
        </mxCell>
        <mxCell id="M_gOYiY0mR8SHbuSnEkB-75" value="" style="rounded=1;whiteSpace=wrap;html=1;" vertex="1" parent="1">
          <mxGeometry x="925" y="244" width="110" height="30" as="geometry" />
        </mxCell>
        <mxCell id="M_gOYiY0mR8SHbuSnEkB-76" value="" style="rounded=1;whiteSpace=wrap;html=1;" vertex="1" parent="1">
          <mxGeometry x="925" y="204" width="110" height="30" as="geometry" />
        </mxCell>
        <mxCell id="M_gOYiY0mR8SHbuSnEkB-77" value="" style="rounded=1;whiteSpace=wrap;html=1;" vertex="1" parent="1">
          <mxGeometry x="925" y="164" width="110" height="30" as="geometry" />
        </mxCell>
        <mxCell id="M_gOYiY0mR8SHbuSnEkB-78" value="selected topic &amp;gt;" style="rounded=1;whiteSpace=wrap;html=1;fillColor=#00CC66;" vertex="1" parent="1">
          <mxGeometry x="925" y="124" width="110" height="30" as="geometry" />
        </mxCell>
        <mxCell id="M_gOYiY0mR8SHbuSnEkB-79" value="" style="rounded=1;whiteSpace=wrap;html=1;" vertex="1" parent="1">
          <mxGeometry x="925" y="84" width="110" height="30" as="geometry" />
        </mxCell>
        <mxCell id="M_gOYiY0mR8SHbuSnEkB-80" value="Topic title" style="rounded=0;whiteSpace=wrap;html=1;" vertex="1" parent="1">
          <mxGeometry x="1050" y="94" width="260" height="36" as="geometry" />
        </mxCell>
        <mxCell id="M_gOYiY0mR8SHbuSnEkB-84" value="" style="dashed=0;align=center;fontSize=12;shape=rect;fillColor=#ffffff;strokeColor=#cccccc;whiteSpace=wrap;html=1;" vertex="1" parent="1">
          <mxGeometry x="1234" y="45" width="80" height="30" as="geometry" />
        </mxCell>
        <mxCell id="M_gOYiY0mR8SHbuSnEkB-85" value="&lt;font style=&quot;font-size: 8px;&quot;&gt;0x00..AS23&lt;/font&gt;" style="text;fontColor=#000000;verticalAlign=middle;spacingLeft=13;fontSize=14;whiteSpace=wrap;html=1;" vertex="1" parent="M_gOYiY0mR8SHbuSnEkB-84">
          <mxGeometry width="80" height="30" as="geometry" />
        </mxCell>
        <mxCell id="M_gOYiY0mR8SHbuSnEkB-86" value="" style="dashed=0;html=1;shape=mxgraph.gmdl.triangle;fillColor=#cccccc;strokeColor=none;" vertex="1" parent="M_gOYiY0mR8SHbuSnEkB-84">
          <mxGeometry x="1" y="0.5" width="10" height="5" relative="1" as="geometry">
            <mxPoint x="-25" y="-2.5" as="offset" />
          </mxGeometry>
        </mxCell>
        <mxCell id="M_gOYiY0mR8SHbuSnEkB-87" value="" style="verticalLabelPosition=bottom;shadow=0;dashed=0;align=center;html=1;verticalAlign=top;strokeWidth=1;shape=mxgraph.mockup.graphics.pieChart;strokeColor=#008cff;parts=10,20,35;partColors=#e0e0e0,#d0d0d0,#c0c0c0,#b0b0b0,#a0a0a0;strokeWidth=2;" vertex="1" parent="1">
          <mxGeometry x="1160" y="155.5" width="150" height="150" as="geometry" />
        </mxCell>
        <mxCell id="M_gOYiY0mR8SHbuSnEkB-88" value="Option A: 10%" style="text;html=1;align=center;verticalAlign=middle;whiteSpace=wrap;rounded=0;" vertex="1" parent="1">
          <mxGeometry x="1030" y="140" width="110" height="30" as="geometry" />
        </mxCell>
        <mxCell id="M_gOYiY0mR8SHbuSnEkB-89" value="Option B: 30%" style="text;html=1;align=center;verticalAlign=middle;whiteSpace=wrap;rounded=0;" vertex="1" parent="1">
          <mxGeometry x="1030" y="160" width="110" height="30" as="geometry" />
        </mxCell>
        <mxCell id="M_gOYiY0mR8SHbuSnEkB-90" value="Option C: 60%" style="text;html=1;align=center;verticalAlign=middle;whiteSpace=wrap;rounded=0;" vertex="1" parent="1">
          <mxGeometry x="1030" y="180" width="110" height="30" as="geometry" />
        </mxCell>
        <mxCell id="M_gOYiY0mR8SHbuSnEkB-91" value="" style="rounded=0;whiteSpace=wrap;html=1;" vertex="1" parent="1">
          <mxGeometry x="920" y="359" width="400" height="280" as="geometry" />
        </mxCell>
        <mxCell id="M_gOYiY0mR8SHbuSnEkB-92" value="" style="rounded=0;whiteSpace=wrap;html=1;" vertex="1" parent="1">
          <mxGeometry x="920" y="359" width="400" height="40" as="geometry" />
        </mxCell>
        <mxCell id="M_gOYiY0mR8SHbuSnEkB-93" value="&amp;lt; Owner &amp;gt;" style="text;html=1;align=center;verticalAlign=middle;whiteSpace=wrap;rounded=0;" vertex="1" parent="1">
          <mxGeometry x="920" y="364" width="60" height="30" as="geometry" />
        </mxCell>
        <mxCell id="M_gOYiY0mR8SHbuSnEkB-94" value="" style="rounded=0;whiteSpace=wrap;html=1;" vertex="1" parent="1">
          <mxGeometry x="920" y="399" width="120" height="240" as="geometry" />
        </mxCell>
        <mxCell id="M_gOYiY0mR8SHbuSnEkB-95" value="" style="rounded=1;whiteSpace=wrap;html=1;" vertex="1" parent="1">
          <mxGeometry x="925" y="603" width="110" height="30" as="geometry" />
        </mxCell>
        <mxCell id="M_gOYiY0mR8SHbuSnEkB-96" value="" style="rounded=1;whiteSpace=wrap;html=1;" vertex="1" parent="1">
          <mxGeometry x="925" y="563" width="110" height="30" as="geometry" />
        </mxCell>
        <mxCell id="M_gOYiY0mR8SHbuSnEkB-97" value="" style="rounded=1;whiteSpace=wrap;html=1;" vertex="1" parent="1">
          <mxGeometry x="925" y="523" width="110" height="30" as="geometry" />
        </mxCell>
        <mxCell id="M_gOYiY0mR8SHbuSnEkB-98" value="" style="rounded=1;whiteSpace=wrap;html=1;" vertex="1" parent="1">
          <mxGeometry x="925" y="483" width="110" height="30" as="geometry" />
        </mxCell>
        <mxCell id="M_gOYiY0mR8SHbuSnEkB-99" value="" style="rounded=1;whiteSpace=wrap;html=1;" vertex="1" parent="1">
          <mxGeometry x="925" y="443" width="110" height="30" as="geometry" />
        </mxCell>
        <mxCell id="M_gOYiY0mR8SHbuSnEkB-100" value="" style="rounded=1;whiteSpace=wrap;html=1;fillColor=#00CC66;" vertex="1" parent="1">
          <mxGeometry x="925" y="403" width="110" height="30" as="geometry" />
        </mxCell>
        <mxCell id="M_gOYiY0mR8SHbuSnEkB-101" value="" style="rounded=0;whiteSpace=wrap;html=1;" vertex="1" parent="1">
          <mxGeometry x="1050" y="413" width="260" height="36" as="geometry" />
        </mxCell>
        <mxCell id="M_gOYiY0mR8SHbuSnEkB-103" value="" style="dashed=0;align=center;fontSize=12;shape=rect;fillColor=#ffffff;strokeColor=#cccccc;whiteSpace=wrap;html=1;" vertex="1" parent="1">
          <mxGeometry x="1234" y="364" width="80" height="30" as="geometry" />
        </mxCell>
        <mxCell id="M_gOYiY0mR8SHbuSnEkB-104" value="&lt;font style=&quot;font-size: 8px;&quot;&gt;0x00..AS23&lt;/font&gt;" style="text;fontColor=#000000;verticalAlign=middle;spacingLeft=13;fontSize=14;whiteSpace=wrap;html=1;" vertex="1" parent="M_gOYiY0mR8SHbuSnEkB-103">
          <mxGeometry width="80" height="30" as="geometry" />
        </mxCell>
        <mxCell id="M_gOYiY0mR8SHbuSnEkB-105" value="" style="dashed=0;html=1;shape=mxgraph.gmdl.triangle;fillColor=#cccccc;strokeColor=none;" vertex="1" parent="M_gOYiY0mR8SHbuSnEkB-103">
          <mxGeometry x="1" y="0.5" width="10" height="5" relative="1" as="geometry">
            <mxPoint x="-25" y="-2.5" as="offset" />
          </mxGeometry>
        </mxCell>
        <mxCell id="M_gOYiY0mR8SHbuSnEkB-106" value="" style="html=1;verticalLabelPosition=bottom;align=center;labelBackgroundColor=#ffffff;verticalAlign=top;strokeWidth=2;strokeColor=#0080F0;shadow=0;dashed=0;shape=mxgraph.ios7.icons.add;" vertex="1" parent="1">
          <mxGeometry x="972" y="410" width="16" height="16" as="geometry" />
        </mxCell>
        <mxCell id="M_gOYiY0mR8SHbuSnEkB-109" value="Enter topic name here !" style="rounded=0;whiteSpace=wrap;html=1;align=left;" vertex="1" parent="1">
          <mxGeometry x="1060" y="423" width="190" height="17" as="geometry" />
        </mxCell>
        <mxCell id="M_gOYiY0mR8SHbuSnEkB-110" value="" style="rounded=1;whiteSpace=wrap;html=1;fillColor=#00CC66;" vertex="1" parent="1">
          <mxGeometry x="1260" y="422" width="40" height="20" as="geometry" />
        </mxCell>
        <mxCell id="M_gOYiY0mR8SHbuSnEkB-111" value="" style="verticalLabelPosition=bottom;verticalAlign=top;html=1;shape=mxgraph.basic.tick" vertex="1" parent="1">
          <mxGeometry x="1275.75" y="427" width="8.5" height="10" as="geometry" />
        </mxCell>
        <mxCell id="M_gOYiY0mR8SHbuSnEkB-114" value="" style="rounded=0;whiteSpace=wrap;html=1;" vertex="1" parent="1">
          <mxGeometry x="1050" y="454" width="260" height="36" as="geometry" />
        </mxCell>
        <mxCell id="M_gOYiY0mR8SHbuSnEkB-115" value="Enter option name" style="rounded=0;whiteSpace=wrap;html=1;align=left;" vertex="1" parent="1">
          <mxGeometry x="1060" y="464" width="190" height="17" as="geometry" />
        </mxCell>
        <mxCell id="M_gOYiY0mR8SHbuSnEkB-116" value="" style="rounded=1;whiteSpace=wrap;html=1;fillColor=#00CC66;" vertex="1" parent="1">
          <mxGeometry x="1260" y="463" width="40" height="20" as="geometry" />
        </mxCell>
        <mxCell id="M_gOYiY0mR8SHbuSnEkB-117" value="" style="verticalLabelPosition=bottom;verticalAlign=top;html=1;shape=mxgraph.basic.tick" vertex="1" parent="1">
          <mxGeometry x="1275.75" y="468" width="8.5" height="10" as="geometry" />
        </mxCell>
        <mxCell id="M_gOYiY0mR8SHbuSnEkB-118" value="" style="rounded=0;whiteSpace=wrap;html=1;" vertex="1" parent="1">
          <mxGeometry x="1050" y="494" width="260" height="36" as="geometry" />
        </mxCell>
        <mxCell id="M_gOYiY0mR8SHbuSnEkB-119" value="Enter option name" style="rounded=0;whiteSpace=wrap;html=1;align=left;" vertex="1" parent="1">
          <mxGeometry x="1060" y="504" width="190" height="17" as="geometry" />
        </mxCell>
        <mxCell id="M_gOYiY0mR8SHbuSnEkB-120" value="" style="rounded=1;whiteSpace=wrap;html=1;fillColor=#00CC66;" vertex="1" parent="1">
          <mxGeometry x="1260" y="503" width="40" height="20" as="geometry" />
        </mxCell>
        <mxCell id="M_gOYiY0mR8SHbuSnEkB-121" value="" style="verticalLabelPosition=bottom;verticalAlign=top;html=1;shape=mxgraph.basic.tick" vertex="1" parent="1">
          <mxGeometry x="1275.75" y="508" width="8.5" height="10" as="geometry" />
        </mxCell>
        <mxCell id="M_gOYiY0mR8SHbuSnEkB-122" value="" style="rounded=1;whiteSpace=wrap;html=1;fillColor=#007FFF;" vertex="1" parent="1">
          <mxGeometry x="1050" y="535" width="260" height="30" as="geometry" />
        </mxCell>
        <mxCell id="M_gOYiY0mR8SHbuSnEkB-123" value="" style="html=1;verticalLabelPosition=bottom;align=center;labelBackgroundColor=#ffffff;verticalAlign=top;strokeWidth=2;strokeColor=#0080F0;shadow=0;dashed=0;shape=mxgraph.ios7.icons.add;" vertex="1" parent="1">
          <mxGeometry x="1172" y="542" width="16" height="16" as="geometry" />
        </mxCell>
        <mxCell id="M_gOYiY0mR8SHbuSnEkB-124" value="" style="rounded=0;whiteSpace=wrap;html=1;" vertex="1" parent="1">
          <mxGeometry x="1040" y="600" width="280" height="39" as="geometry" />
        </mxCell>
        <mxCell id="M_gOYiY0mR8SHbuSnEkB-125" value="" style="rounded=1;whiteSpace=wrap;html=1;fillColor=#00CC66;" vertex="1" parent="1">
          <mxGeometry x="1120" y="609.5" width="40" height="20" as="geometry" />
        </mxCell>
        <mxCell id="M_gOYiY0mR8SHbuSnEkB-126" value="" style="verticalLabelPosition=bottom;verticalAlign=top;html=1;shape=mxgraph.basic.tick" vertex="1" parent="1">
          <mxGeometry x="1135.75" y="614.5" width="8.5" height="10" as="geometry" />
        </mxCell>
        <mxCell id="M_gOYiY0mR8SHbuSnEkB-127" value="" style="rounded=1;whiteSpace=wrap;html=1;fillColor=#FF6666;" vertex="1" parent="1">
          <mxGeometry x="1172" y="609.5" width="40" height="20" as="geometry" />
        </mxCell>
        <mxCell id="M_gOYiY0mR8SHbuSnEkB-130" value="" style="verticalLabelPosition=bottom;verticalAlign=top;html=1;shape=mxgraph.basic.x" vertex="1" parent="1">
          <mxGeometry x="1188" y="614.5" width="10.5" height="10.5" as="geometry" />
        </mxCell>
        <mxCell id="M_gOYiY0mR8SHbuSnEkB-131" value="" style="rounded=0;whiteSpace=wrap;html=1;" vertex="1" parent="1">
          <mxGeometry x="480" y="40" width="400" height="280" as="geometry" />
        </mxCell>
        <mxCell id="M_gOYiY0mR8SHbuSnEkB-132" value="" style="rounded=0;whiteSpace=wrap;html=1;" vertex="1" parent="1">
          <mxGeometry x="480" y="40" width="400" height="40" as="geometry" />
        </mxCell>
        <mxCell id="M_gOYiY0mR8SHbuSnEkB-133" value="&amp;lt; User &amp;gt;" style="text;html=1;align=center;verticalAlign=middle;whiteSpace=wrap;rounded=0;" vertex="1" parent="1">
          <mxGeometry x="480" y="45" width="60" height="30" as="geometry" />
        </mxCell>
        <mxCell id="M_gOYiY0mR8SHbuSnEkB-134" value="" style="rounded=0;whiteSpace=wrap;html=1;" vertex="1" parent="1">
          <mxGeometry x="480" y="80" width="120" height="240" as="geometry" />
        </mxCell>
        <mxCell id="M_gOYiY0mR8SHbuSnEkB-135" value="" style="rounded=1;whiteSpace=wrap;html=1;" vertex="1" parent="1">
          <mxGeometry x="485" y="284" width="110" height="30" as="geometry" />
        </mxCell>
        <mxCell id="M_gOYiY0mR8SHbuSnEkB-136" value="" style="rounded=1;whiteSpace=wrap;html=1;" vertex="1" parent="1">
          <mxGeometry x="485" y="244" width="110" height="30" as="geometry" />
        </mxCell>
        <mxCell id="M_gOYiY0mR8SHbuSnEkB-137" value="" style="rounded=1;whiteSpace=wrap;html=1;" vertex="1" parent="1">
          <mxGeometry x="485" y="204" width="110" height="30" as="geometry" />
        </mxCell>
        <mxCell id="M_gOYiY0mR8SHbuSnEkB-138" value="" style="rounded=1;whiteSpace=wrap;html=1;" vertex="1" parent="1">
          <mxGeometry x="485" y="164" width="110" height="30" as="geometry" />
        </mxCell>
        <mxCell id="M_gOYiY0mR8SHbuSnEkB-139" value="selected topic &amp;gt;" style="rounded=1;whiteSpace=wrap;html=1;fillColor=#00CC66;" vertex="1" parent="1">
          <mxGeometry x="485" y="124" width="110" height="30" as="geometry" />
        </mxCell>
        <mxCell id="M_gOYiY0mR8SHbuSnEkB-140" value="" style="rounded=1;whiteSpace=wrap;html=1;" vertex="1" parent="1">
          <mxGeometry x="485" y="84" width="110" height="30" as="geometry" />
        </mxCell>
        <mxCell id="M_gOYiY0mR8SHbuSnEkB-141" value="Topic title" style="rounded=0;whiteSpace=wrap;html=1;" vertex="1" parent="1">
          <mxGeometry x="610" y="94" width="260" height="36" as="geometry" />
        </mxCell>
        <mxCell id="M_gOYiY0mR8SHbuSnEkB-142" value="Option A" style="whiteSpace=wrap;html=1;aspect=fixed;" vertex="1" parent="1">
          <mxGeometry x="610" y="139" width="61" height="61" as="geometry" />
        </mxCell>
        <mxCell id="M_gOYiY0mR8SHbuSnEkB-143" value="Option B" style="whiteSpace=wrap;html=1;aspect=fixed;fillColor=#00CC66;" vertex="1" parent="1">
          <mxGeometry x="680" y="139" width="61" height="61" as="geometry" />
        </mxCell>
        <mxCell id="M_gOYiY0mR8SHbuSnEkB-144" value="Option C" style="whiteSpace=wrap;html=1;aspect=fixed;" vertex="1" parent="1">
          <mxGeometry x="750" y="139" width="61" height="61" as="geometry" />
        </mxCell>
        <mxCell id="M_gOYiY0mR8SHbuSnEkB-145" value="" style="dashed=0;align=center;fontSize=12;shape=rect;fillColor=#ffffff;strokeColor=#cccccc;whiteSpace=wrap;html=1;" vertex="1" parent="1">
          <mxGeometry x="794" y="45" width="80" height="30" as="geometry" />
        </mxCell>
        <mxCell id="M_gOYiY0mR8SHbuSnEkB-146" value="&lt;font style=&quot;font-size: 8px;&quot;&gt;0x00..AS23&lt;/font&gt;" style="text;fontColor=#000000;verticalAlign=middle;spacingLeft=13;fontSize=14;whiteSpace=wrap;html=1;" vertex="1" parent="M_gOYiY0mR8SHbuSnEkB-145">
          <mxGeometry width="80" height="30" as="geometry" />
        </mxCell>
        <mxCell id="M_gOYiY0mR8SHbuSnEkB-147" value="" style="dashed=0;html=1;shape=mxgraph.gmdl.triangle;fillColor=#cccccc;strokeColor=none;" vertex="1" parent="M_gOYiY0mR8SHbuSnEkB-145">
          <mxGeometry x="1" y="0.5" width="10" height="5" relative="1" as="geometry">
            <mxPoint x="-25" y="-2.5" as="offset" />
          </mxGeometry>
        </mxCell>
      </root>
    </mxGraphModel>
  </diagram>
</mxfile>
